<mxfile host="app.diagrams.net" modified="2022-03-09T07:22:23.620Z" agent="5.0 (Windows)" etag="A7pBbojYmvy3Ud86zfE6" version="17.0.0" type="github">
  <diagram id="wMN4ljE2Jc2CcBB8Cd5Y" name="Page-1">
    <mxGraphModel dx="658" dy="738" grid="1" gridSize="10" guides="1" tooltips="1" connect="1" arrows="1" fold="1" page="1" pageScale="1" pageWidth="850" pageHeight="1100" math="0" shadow="0">
      <root>
        <mxCell id="0" />
        <mxCell id="1" parent="0" />
        <mxCell id="52uv7NaKARiH9K-k0Rfd-1" value="Get Used By" style="edgeStyle=orthogonalEdgeStyle;rounded=0;orthogonalLoop=1;jettySize=auto;html=1;exitX=1;exitY=0.5;exitDx=0;exitDy=0;entryX=0.5;entryY=0;entryDx=0;entryDy=0;fontSize=16;strokeWidth=3;" edge="1" parent="1" source="52uv7NaKARiH9K-k0Rfd-5" target="52uv7NaKARiH9K-k0Rfd-6">
          <mxGeometry x="-0.25" relative="1" as="geometry">
            <mxPoint as="offset" />
          </mxGeometry>
        </mxCell>
        <mxCell id="52uv7NaKARiH9K-k0Rfd-2" value="&lt;font style=&quot;font-size: 16px&quot;&gt;Is Placed in&lt;/font&gt;" style="edgeStyle=orthogonalEdgeStyle;rounded=0;orthogonalLoop=1;jettySize=auto;html=1;entryX=0.5;entryY=0;entryDx=0;entryDy=0;strokeWidth=3;" edge="1" parent="1" source="52uv7NaKARiH9K-k0Rfd-5" target="52uv7NaKARiH9K-k0Rfd-7">
          <mxGeometry x="-0.3333" relative="1" as="geometry">
            <mxPoint as="offset" />
          </mxGeometry>
        </mxCell>
        <mxCell id="52uv7NaKARiH9K-k0Rfd-3" style="edgeStyle=orthogonalEdgeStyle;rounded=0;orthogonalLoop=1;jettySize=auto;html=1;exitX=0.5;exitY=0;exitDx=0;exitDy=0;entryX=0.5;entryY=1;entryDx=0;entryDy=0;strokeWidth=3;" edge="1" parent="1" source="52uv7NaKARiH9K-k0Rfd-5" target="52uv7NaKARiH9K-k0Rfd-8">
          <mxGeometry relative="1" as="geometry" />
        </mxCell>
        <mxCell id="52uv7NaKARiH9K-k0Rfd-4" value="&lt;font style=&quot;font-size: 16px&quot;&gt;has&lt;/font&gt;" style="edgeLabel;html=1;align=center;verticalAlign=middle;resizable=0;points=[];" vertex="1" connectable="0" parent="52uv7NaKARiH9K-k0Rfd-3">
          <mxGeometry x="-0.1704" relative="1" as="geometry">
            <mxPoint as="offset" />
          </mxGeometry>
        </mxCell>
        <mxCell id="52uv7NaKARiH9K-k0Rfd-5" value="&lt;font style=&quot;font-size: 24px&quot;&gt;Quest&lt;/font&gt;" style="rounded=1;whiteSpace=wrap;html=1;strokeWidth=3;" vertex="1" parent="1">
          <mxGeometry x="270" y="170" width="190" height="90" as="geometry" />
        </mxCell>
        <mxCell id="52uv7NaKARiH9K-k0Rfd-6" value="&lt;font style=&quot;font-size: 24px&quot;&gt;Player&lt;/font&gt;" style="rounded=1;whiteSpace=wrap;html=1;strokeWidth=3;" vertex="1" parent="1">
          <mxGeometry x="540" y="280" width="190" height="90" as="geometry" />
        </mxCell>
        <mxCell id="52uv7NaKARiH9K-k0Rfd-7" value="&lt;font style=&quot;font-size: 24px&quot;&gt;Open World&lt;br&gt;&lt;/font&gt;" style="rounded=1;whiteSpace=wrap;html=1;strokeWidth=3;" vertex="1" parent="1">
          <mxGeometry x="30" y="280" width="190" height="90" as="geometry" />
        </mxCell>
        <mxCell id="52uv7NaKARiH9K-k0Rfd-8" value="&lt;font style=&quot;font-size: 24px&quot;&gt;Game&amp;nbsp; Object&lt;br&gt;&lt;/font&gt;" style="rounded=1;whiteSpace=wrap;html=1;strokeWidth=3;" vertex="1" parent="1">
          <mxGeometry x="270" y="20" width="190" height="90" as="geometry" />
        </mxCell>
      </root>
    </mxGraphModel>
  </diagram>
</mxfile>
